#!OML:ASF I:\golf\golf\golf 2\Subject 1\2002-09-07\Subject1.ASF
:FULLY-SPECIFIED
:DEGREES
227
root -1.05297 17.4152 -3.18875 56.8951 29.3685 13.6409
lowerback 27.522 6.33999 0.865009
upperback 17.501 9.21971 17.0418
thorax 1.36145 4.03831 15.5398
lowerneck -16.4648 -11.5501 -5.17259
upperneck 7.45147 -13.9171 -5.09989
head 4.83692 -7.35115 -2.02373
rclavicle -6.67916e-014 -5.88403e-014
rhumerus 46.3461 -6.90594 -36.2058
rradius 28.1182
rwrist -13.0854
rhand -28.3369 11.8072
rfingers 7.12502
rthumb -1.71129 -18.1657
lclavicle -6.67916e-014 -5.88403e-014
lhumerus -26.1044 -36.6583 112.073
lradius 66.785
lwrist 14.4441
lhand -36.4316 34.1549
lfingers 7.12502
lthumb -9.52628 63.9195
rfemur -82.3653 -11.2533 23.3158
rtibia 41.27
rfoot -6.42049 -9.91073
rtoes 19.0244
lfemur -47.8112 -5.94054 -7.00994
ltibia 37.3565
lfoot -7.03956 0.845123
ltoes -12.3768
228
root -1.07488 17.4167 -3.14433 57.6836 29.4223 14.0708
lowerback 27.7155 6.4335 1.06119
upperback 17.4691 9.3948 17.1011
thorax 1.21906 4.13708 15.4087
lowerneck -16.2357 -11.6827 -4.96179
upperneck 6.91061 -14.1945 -5.15851
head 4.60847 -7.48029 -2.05435
rclavicle 6.36111e-015 -8.26944e-014
rhumerus 46.4459 -7.45437 -35.2874
rradius 28.5114
rwrist -13.1911
rhand -28.9421 11.7986
rfingers 7.12502
rthumb -2.2958 -18.1688
lclavicle 6.36111e-015 -8.26944e-014
lhumerus -26.3305 -36.8546 112.25
lradius 66.6617
lwrist 14.6578
lhand -36.4094 33.3958
lfingers 7.12502
lthumb -9.50484 63.1614
rfemur -82.786 -11.3589 23.1181
rtibia 41.1243
rfoot -6.73794 -10.1074
rtoes 19.9898
lfemur -47.5275 -6.08295 -6.69692
ltibia 37.0617
lfoot -5.82494 0.218744
ltoes -11.9363
229
root -1.09649 17.4212 -3.09903 58.4825 29.4766 14.5224
lowerback 27.902 6.51419 1.27119
upperback 17.428 9.55709 17.1505
thorax 1.07886 4.23008 15.2629
lowerneck -15.8531 -11.842 -4.85937
upperneck 6.17323 -14.5195 -5.08691
head 4.31137 -7.6248 -2.01584
rclavicle -1.24042e-013 -4.6118e-014
rhumerus 46.5115 -8.03857 -34.3347
rradius 28.8331
rwrist -13.1505
rhand -29.6142 12.0061
rfingers 7.12502
rthumb -2.9449 -17.9533
lclavicle -1.24042e-013 -4.6118e-014
lhumerus -26.4706 -37.1365 112.403
lradius 66.3983
lwrist 14.8984
lhand -36.459 32.9459
lfingers 7.12502
lthumb -9.55266 62.7094
rfemur -83.2022 -11.5359 22.9887
rtibia 40.9534
rfoot -6.79771 -10.1615
rtoes 20.1882
lfemur -47.228 -6.2105 -6.41765
ltibia 36.7571
lfoot -4.45888 -0.29021
ltoes -11.902
230
root -1.11596 17.4274 -3.05297 59.1957 29.5891 14.9364
lowerback 28.1212 6.56425 1.61027
upperback 17.4088 9.70624 17.1888
thorax 0.979865 4.32021 15.0363
lowerneck -15.4354 -11.9803 -4.59908
upperneck 5.35448 -14.855 -5.03163
head 3.97209 -7.77258 -1.99583
rclavicle -5.40694e-014 -6.04305e-014
rhumerus 46.5734 -8.62539 -33.3599
rradius 28.9879
rwrist -13.12
rhand -30.4914 12.5871
rfingers 7.12502
rthumb -3.79205 -17.3589
lclavicle -5.40694e-014 -6.04305e-014
lhumerus -26.5834 -37.5097 112.466
lradius 66.1488
lwrist 15.2698
lhand -36.4648 32.4336
lfingers 7.12502
lthumb -9.55825 62.1968
rfemur -83.5442 -11.789 23.0359
rtibia 40.7503
rfoot -6.5487 -10.076
rtoes 19.4519
lfemur -46.8486 -6.30286 -6.1626
ltibia 36.4295
lfoot -3.15882 -0.80562
ltoes -13.6539
231
root -1.13179 17.4309 -3.01406 59.9903 29.6899 15.3453
lowerback 28.2728 6.59643 2.00747
upperback 17.3608 9.83822 17.187
thorax 0.904175 4.40484 14.7436
lowerneck -15.2302 -12.0715 -4.29805
upperneck 4.7547 -15.0943 -5.11651
head 3.72218 -7.88511 -2.03668
rclavicle -2.22639e-014 0
rhumerus 46.7296 -9.28908 -32.5994
rradius 29.0143
rwrist -12.9161
rhand -31.303 12.9959
rfingers 7.12502
rthumb -4.57576 -16.9347
lclavicle -2.22639e-014 0
lhumerus -26.7671 -38.0214 112.495
lradius 66.1718
lwrist 15.7936
lhand -35.9526 33.0996
lfingers 7.12502
lthumb -9.06404 62.8848
rfemur -83.9739 -12.0238 23.0433
rtibia 40.5154
rfoot -6.48844 -10.0506
rtoes 19.5134
lfemur -46.5576 -6.34757 -5.93083
ltibia 36.0946
lfoot -1.84249 -1.48669
ltoes -14.8939
232
root -1.14979 17.4356 -2.97459 60.7985 29.7081 15.7741
lowerback 28.4147 6.67365 2.25696
upperback 17.3433 9.99096 17.1716
thorax 0.83926 4.49101 14.5153
lowerneck -15.3041 -12.1571 -3.83081
upperneck 4.34772 -15.326 -5.27975
head 3.55637 -8.00178 -2.1475
rclavicle -4.45278e-014 -9.06458e-014
rhumerus 46.8227 -9.90391 -31.661
rradius 29.1725
rwrist -12.7777
rhand -32.1764 12.9267
rfingers 7.12502
rthumb -5.419 -16.9841
lclavicle -4.45278e-014 -9.06458e-014
lhumerus -26.9153 -38.4746 112.508
lradius 66.197
lwrist 16.2252
lhand -35.6351 33.3057
lfingers 7.12502
lthumb -8.75767 63.104
rfemur -84.3527 -12.1608 22.8188
rtibia 40.2554
rfoot -6.57807 -10.1631
rtoes 20.3523
lfemur -46.2529 -6.33903 -5.72919
ltibia 35.7719
lfoot -0.587069 -2.19569
ltoes -13.8773
